<?xml version="1.0" encoding="UTF-8"?>
<svg xmlns="http://www.w3.org/2000/svg" xmlns:xlink="http://www.w3.org/1999/xlink" width="50pt" height="50pt" viewBox="0 0 50 50" version="1.1">
<g id="surface1">
<path style=" stroke:none;fill-rule:nonzero;fill:#FFFFFF;fill-opacity:1;" d="M 25 3 C 12.863281 3 3 12.863281 3 25 C 3 36.019531 11.128906 45.136719 21.714844 46.730469 L 22.859375 46.902344 L 22.859375 29.566406 L 17.664063 29.566406 L 17.664063 26.046875 L 22.859375 26.046875 L 22.859375 21.375 C 22.859375 18.496094 23.550781 16.597656 24.695313 15.410156 C 25.839844 14.222656 27.527344 13.621094 29.878906 13.621094 C 31.757813 13.621094 32.488281 13.734375 33.1875 13.820313 L 33.1875 16.703125 L 30.738281 16.703125 C 29.351563 16.703125 28.210938 17.476563 27.621094 18.507813 C 27.027344 19.539063 26.84375 20.773438 26.84375 22.027344 L 26.84375 26.046875 L 32.96875 26.046875 L 32.421875 29.5625 L 26.84375 29.5625 L 26.84375 46.929688 L 27.980469 46.777344 C 38.714844 45.320313 47 36.125 47 25 C 47 12.863281 37.136719 3 25 3 Z M 25 5 C 36.058594 5 45 13.941406 45 25 C 45 34.730469 38.035156 42.730469 28.84375 44.53125 L 28.84375 31.5625 L 34.136719 31.5625 L 35.296875 24.046875 L 28.84375 24.046875 L 28.84375 22.027344 C 28.84375 20.988281 29.035156 20.058594 29.355469 19.5 C 29.671875 18.945313 29.980469 18.703125 30.738281 18.703125 L 35.1875 18.703125 L 35.1875 12.011719 L 34.316406 11.890625 C 33.71875 11.8125 32.347656 11.621094 29.878906 11.621094 C 27.175781 11.621094 24.855469 12.359375 23.253906 14.023438 C 21.652344 15.6875 20.859375 18.171875 20.859375 21.375 L 20.859375 24.046875 L 15.664063 24.046875 L 15.664063 31.566406 L 20.859375 31.566406 L 20.859375 44.46875 C 11.816406 42.554688 5 34.625 5 25 C 5 13.941406 13.941406 5 25 5 Z "/>
</g>
</svg>
